<?xml version="1.0" standalone="no"?>
<!DOCTYPE svg PUBLIC "-//W3C//DTD SVG 20010904//EN"
 "http://www.w3.org/TR/2001/REC-SVG-20010904/DTD/svg10.dtd">
<svg version="1.0" xmlns="http://www.w3.org/2000/svg"
 width="876.000000pt" height="876.000000pt" viewBox="0 0 876.000000 876.000000"
 preserveAspectRatio="xMidYMid meet">
<metadata>
Created by potrace 1.11, written by Peter Selinger 2001-2013
</metadata>
<g transform="translate(0.000000,876.000000) scale(0.100000,-0.100000)"
fill="#000000" stroke="none">
<path d="M3719 7128 c-12 -23 -128 -223 -259 -443 -306 -516 -1024 -1731
-1152 -1948 -55 -93 -97 -175 -94 -183 5 -12 229 -14 1541 -14 1009 0 1534 4
1530 10 -3 6 -1 10 4 10 15 0 14 21 -3 39 -8 9 -112 183 -231 386 -120 204
-231 389 -246 412 -16 23 -29 48 -29 56 0 8 -7 18 -16 21 -9 3 -222 6 -474 6
-269 0 -461 4 -465 9 -3 5 73 146 168 313 96 167 191 335 212 373 21 39 46 81
55 95 17 25 16 27 -49 145 -37 66 -107 188 -155 270 -49 83 -133 224 -186 315
-53 91 -104 166 -113 168 -10 2 -23 -11 -38 -40z"/>
<path d="M6179 7122 c-1265 -2 -1448 -4 -1459 -17 -10 -12 25 -79 206 -387
120 -205 229 -388 242 -405 l24 -33 473 0 473 0 -215 -371 c-118 -205 -222
-387 -230 -405 -16 -33 -16 -34 33 -131 27 -54 132 -240 233 -413 101 -173
190 -330 198 -347 19 -47 55 -45 81 5 10 20 194 343 407 717 629 1104 665
1167 839 1473 91 161 166 296 166 301 0 5 -6 10 -12 12 -7 2 -664 3 -1459 1z"/>
<path d="M1754 3745 c-4 -8 -12 -15 -18 -15 -7 0 -13 -6 -13 -12 0 -7 -60
-114 -133 -238 -163 -276 -785 -1339 -818 -1397 l-24 -43 549 0 549 0 449 786
c247 433 459 808 471 835 13 26 32 54 43 61 59 36 38 38 -514 38 -467 0 -536
-2 -541 -15z"/>
<path d="M4720 3751 c0 -5 4 -11 8 -13 4 -1 176 -295 381 -653 206 -357 426
-739 489 -847 l114 -198 539 0 c296 0 539 2 539 5 0 3 -163 281 -362 618 -199
337 -410 693 -468 793 -59 99 -119 198 -133 219 -15 22 -27 47 -27 56 0 9 -7
20 -16 23 -26 10 -1064 7 -1064 -3z"/>
</g>
</svg>
